<svg width="81" height="81" viewBox="0 0 81 81" fill="none" xmlns="http://www.w3.org/2000/svg">
<path d="M43.7413 80.1857C64.1963 80.1857 80.7783 63.6037 80.7783 43.1487C80.7783 22.6937 64.1963 6.11163 43.7413 6.11163C23.2863 6.11163 6.70422 22.6937 6.70422 43.1487C6.70422 63.6037 23.2863 80.1857 43.7413 80.1857Z" fill="black"/>
<path d="M38.6055 76.4327C59.4969 76.4327 76.4327 59.4969 76.4327 38.6055C76.4327 17.7141 59.4969 0.77832 38.6055 0.77832C17.7141 0.77832 0.77832 17.7141 0.77832 38.6055C0.77832 59.4969 17.7141 76.4327 38.6055 76.4327Z" fill="#FF90E8" stroke="black" stroke-width="1.55665"/>
<path d="M35.392 57.2723C24.5428 57.2723 18.1609 48.5704 18.1609 37.7461C18.1609 26.4973 25.181 17.3711 38.5829 17.3711C52.4104 17.3711 57.0904 26.7097 57.3031 32.0158H47.3049C47.0921 29.0443 44.5394 24.5872 38.3701 24.5872C31.7756 24.5872 27.521 30.3178 27.521 37.3217C27.521 44.3257 31.7756 50.0561 38.3701 50.0561C44.3267 50.0561 46.8794 45.3868 47.9431 40.7176H38.3701V36.8972H58.4573V56.4233H49.6448V44.1134C49.0068 48.5704 46.2412 57.2723 35.392 57.2723Z" fill="black"/>
</svg>
